<svg xmlns:dc="http://purl.org/dc/elements/1.1/" xmlns:cc="http://creativecommons.org/ns#" xmlns:rdf="http://www.w3.org/1999/02/22-rdf-syntax-ns#" xmlns:svg="http://www.w3.org/2000/svg" xmlns="http://www.w3.org/2000/svg" xmlns:sodipodi="http://sodipodi.sourceforge.net/DTD/sodipodi-0.dtd" xmlns:inkscape="http://www.inkscape.org/namespaces/inkscape" version="1.1" x="0px" y="0px" viewBox="0 0 100 125"><g transform="translate(0,-952.36218)"><path style="text-indent:0;text-transform:none;direction:ltr;block-progression:tb;baseline-shift:baseline;color:#000000;enable-background:accumulate;" d="m 49.999998,959.36216 c -23.7364,0 -43,19.2636 -43,43.00004 0,12.5621 5.40139,23.8547 14,31.7187 l 0,0.2813 0.3125,0 c 7.61267,6.8283 17.66373,11 28.6875,11 11.02377,0 21.07483,-4.1717 28.6875,-11 l 0.3125,0 0,-0.2813 c 8.59861,-7.864 14.000004,-19.1566 14.000004,-31.7187 0,-23.73644 -19.263604,-43.00004 -43.000004,-43.00004 z m 0,2 c 22.65552,0 41.000004,18.34448 41.000004,41.00004 0,11.3277 -4.581944,21.5819 -12.000004,29 l 0,-9 c 0,-7.1847 -5.81531,-13 -13,-13 l -32,0 c -7.18469,0 -13,5.8153 -13,13 l 0,9 c -7.41806,-7.4181 -12,-17.6723 -12,-29 0,-22.65556 18.34448,-41.00004 41,-41.00004 z m 0,7 c -9.377,0 -17,7.62301 -17,17 0,9.37694 7.623,17.00004 17,17.00004 9.377,0 17,-7.6231 17,-17.00004 0,-9.37699 -7.623,-17 -17,-17 z m 0,2 c 8.29612,0 15,6.70389 15,15 0,8.29614 -6.70388,15.00004 -15,15.00004 -8.29612,0 -15,-6.7039 -15,-15.00004 0,-8.29611 6.70388,-15 15,-15 z m -16,41.00004 32,0 c 6.11129,0 11,4.8887 11,11 l 0,10.8437 c -7.21231,6.3184 -16.65073,10.1563 -27,10.1563 -10.34927,0 -19.78769,-3.8379 -27,-10.1563 l 0,-10.8437 c 0,-6.1113 4.88871,-11 11,-11 z" fill="#000000" fill-opacity="1" stroke="none" marker="none" visibility="visible" display="inline" overflow="visible"/></g><text x="0" y="115" fill="#000000" font-size="5px" font-weight="bold" font-family="'Helvetica Neue', Helvetica, Arial-Unicode, Arial, Sans-serif">Created by Kimmi Studio</text><text x="0" y="120" fill="#000000" font-size="5px" font-weight="bold" font-family="'Helvetica Neue', Helvetica, Arial-Unicode, Arial, Sans-serif">from the Noun Project</text></svg>